<svg viewBox="0 0 330 200" xmlns="http://www.w3.org/2000/svg"><g><g><g><g><g><line x1="50" y1="177" x2="45" y2="177" style="visibility: inherit;" fill="rgb(0, 0, 0)" stroke="rgb(204, 204, 204)" stroke-width="1px"></line><line x1="50" y1="154.87500000000003" x2="45" y2="154.87500000000003" style="visibility: inherit;" fill="rgb(0, 0, 0)" stroke="rgb(204, 204, 204)" stroke-width="1px"></line><line x1="50" y1="132.75" x2="45" y2="132.75" style="visibility: inherit;" fill="rgb(0, 0, 0)" stroke="rgb(204, 204, 204)" stroke-width="1px"></line><line x1="50" y1="110.625" x2="45" y2="110.625" style="visibility: inherit;" fill="rgb(0, 0, 0)" stroke="rgb(204, 204, 204)" stroke-width="1px"></line><line x1="50" y1="88.50000000000001" x2="45" y2="88.50000000000001" style="visibility: inherit;" fill="rgb(0, 0, 0)" stroke="rgb(204, 204, 204)" stroke-width="1px"></line><line x1="50" y1="66.375" x2="45" y2="66.375" style="visibility: inherit;" fill="rgb(0, 0, 0)" stroke="rgb(204, 204, 204)" stroke-width="1px"></line><line x1="50" y1="44.25000000000004" x2="45" y2="44.25000000000004" style="visibility: inherit;" fill="rgb(0, 0, 0)" stroke="rgb(204, 204, 204)" stroke-width="1px"></line><line x1="50" y1="22.12500000000002" x2="45" y2="22.12500000000002" style="visibility: inherit;" fill="rgb(0, 0, 0)" stroke="rgb(204, 204, 204)" stroke-width="1px"></line><line x1="50" y1="0" x2="45" y2="0" style="visibility: inherit;" fill="rgb(0, 0, 0)" stroke="rgb(204, 204, 204)" stroke-width="1px"></line></g><g transform="translate(40, 0)"><text x="0" y="177" dx="0em" dy="0.3em" style="text-anchor: end; visibility: hidden; font-family: Roboto, sans-serif; font-size: 12px; font-weight: 200;" fill="rgb(255, 255, 255)" stroke="none" stroke-width="1px">0.65</text><text x="0" y="154.87500000000003" dx="0em" dy="0.3em" style="text-anchor: end; visibility: inherit; font-family: Roboto, sans-serif; font-size: 12px; font-weight: 200;" fill="rgb(255, 255, 255)" stroke="none" stroke-width="1px">0.7</text><text x="0" y="132.75" dx="0em" dy="0.3em" style="text-anchor: end; visibility: hidden; font-family: Roboto, sans-serif; font-size: 12px; font-weight: 200;" fill="rgb(255, 255, 255)" stroke="none" stroke-width="1px">0.75</text><text x="0" y="110.625" dx="0em" dy="0.3em" style="text-anchor: end; visibility: inherit; font-family: Roboto, sans-serif; font-size: 12px; font-weight: 200;" fill="rgb(255, 255, 255)" stroke="none" stroke-width="1px">0.8</text><text x="0" y="88.50000000000001" dx="0em" dy="0.3em" style="text-anchor: end; visibility: hidden; font-family: Roboto, sans-serif; font-size: 12px; font-weight: 200;" fill="rgb(255, 255, 255)" stroke="none" stroke-width="1px">0.85</text><text x="0" y="66.375" dx="0em" dy="0.3em" style="text-anchor: end; visibility: inherit; font-family: Roboto, sans-serif; font-size: 12px; font-weight: 200;" fill="rgb(255, 255, 255)" stroke="none" stroke-width="1px">0.9</text><text x="0" y="44.25000000000004" dx="0em" dy="0.3em" style="text-anchor: end; visibility: hidden; font-family: Roboto, sans-serif; font-size: 12px; font-weight: 200;" fill="rgb(255, 255, 255)" stroke="none" stroke-width="1px">0.95</text><text x="0" y="22.12500000000002" dx="0em" dy="0.3em" style="text-anchor: end; visibility: inherit; font-family: Roboto, sans-serif; font-size: 12px; font-weight: 200;" fill="rgb(255, 255, 255)" stroke="none" stroke-width="1px">1</text><text x="0" y="0" dx="0em" dy="0.3em" style="text-anchor: end; visibility: hidden; font-family: Roboto, sans-serif; font-size: 12px; font-weight: 200;" fill="rgb(255, 255, 255)" stroke="none" stroke-width="1px">1.05</text></g><line x1="50" y1="0" x2="50" y2="177" fill="rgb(0, 0, 0)" stroke="rgb(204, 204, 204)" stroke-width="1px"></line></g></g><g transform="translate(50, 0)" clip-path="url(#clip_0)"><clipPath id="clip_0"><rect width="280" height="177"></rect></clipPath><g><g><g><line x1="0" y1="0" x2="0" y2="177" fill="rgb(0, 0, 0)" stroke="rgb(189, 189, 189)" stroke-width="1px" opacity="0.25"></line><line x1="23.333333333333332" y1="0" x2="23.333333333333332" y2="177" fill="rgb(0, 0, 0)" stroke="rgb(189, 189, 189)" stroke-width="1px" opacity="0.25"></line><line x1="46.666666666666664" y1="0" x2="46.666666666666664" y2="177" fill="rgb(0, 0, 0)" stroke="rgb(189, 189, 189)" stroke-width="1px" opacity="0.25"></line><line x1="70" y1="0" x2="70" y2="177" fill="rgb(0, 0, 0)" stroke="rgb(189, 189, 189)" stroke-width="1px" opacity="0.25"></line><line x1="93.33333333333333" y1="0" x2="93.33333333333333" y2="177" fill="rgb(0, 0, 0)" stroke="rgb(189, 189, 189)" stroke-width="1px" opacity="0.25"></line><line x1="116.66666666666667" y1="0" x2="116.66666666666667" y2="177" fill="rgb(0, 0, 0)" stroke="rgb(189, 189, 189)" stroke-width="1px" opacity="0.25"></line><line x1="140" y1="0" x2="140" y2="177" fill="rgb(0, 0, 0)" stroke="rgb(189, 189, 189)" stroke-width="1px" opacity="0.25"></line><line x1="163.33333333333334" y1="0" x2="163.33333333333334" y2="177" fill="rgb(0, 0, 0)" stroke="rgb(189, 189, 189)" stroke-width="1px" opacity="0.25"></line><line x1="186.66666666666666" y1="0" x2="186.66666666666666" y2="177" fill="rgb(0, 0, 0)" stroke="rgb(189, 189, 189)" stroke-width="1px" opacity="0.25"></line><line x1="210" y1="0" x2="210" y2="177" fill="rgb(0, 0, 0)" stroke="rgb(189, 189, 189)" stroke-width="1px" opacity="0.25"></line><line x1="233.33333333333334" y1="0" x2="233.33333333333334" y2="177" fill="rgb(0, 0, 0)" stroke="rgb(189, 189, 189)" stroke-width="1px" opacity="0.25"></line><line x1="256.66666666666663" y1="0" x2="256.66666666666663" y2="177" fill="rgb(0, 0, 0)" stroke="rgb(189, 189, 189)" stroke-width="1px" opacity="0.25"></line><line x1="280" y1="0" x2="280" y2="177" fill="rgb(0, 0, 0)" stroke="rgb(189, 189, 189)" stroke-width="1px" opacity="0.25"></line></g><g><line x1="0" y1="177" x2="280" y2="177" fill="rgb(0, 0, 0)" stroke="rgb(189, 189, 189)" stroke-width="1px" opacity="0.25"></line><line x1="0" y1="154.87500000000003" x2="280" y2="154.87500000000003" fill="rgb(0, 0, 0)" stroke="rgb(189, 189, 189)" stroke-width="1px" opacity="0.25"></line><line x1="0" y1="132.75" x2="280" y2="132.75" fill="rgb(0, 0, 0)" stroke="rgb(189, 189, 189)" stroke-width="1px" opacity="0.25"></line><line x1="0" y1="110.625" x2="280" y2="110.625" fill="rgb(0, 0, 0)" stroke="rgb(189, 189, 189)" stroke-width="1px" opacity="0.25"></line><line x1="0" y1="88.50000000000001" x2="280" y2="88.50000000000001" fill="rgb(0, 0, 0)" stroke="rgb(189, 189, 189)" stroke-width="1px" opacity="0.25"></line><line x1="0" y1="66.375" x2="280" y2="66.375" fill="rgb(0, 0, 0)" stroke="rgb(189, 189, 189)" stroke-width="1px" opacity="0.25"></line><line x1="0" y1="44.25000000000004" x2="280" y2="44.25000000000004" fill="rgb(0, 0, 0)" stroke="rgb(189, 189, 189)" stroke-width="1px" opacity="0.25"></line><line x1="0" y1="22.12500000000002" x2="280" y2="22.12500000000002" fill="rgb(0, 0, 0)" stroke="rgb(189, 189, 189)" stroke-width="1px" opacity="0.25"></line><line x1="0" y1="0" x2="280" y2="0" fill="rgb(0, 0, 0)" stroke="rgb(189, 189, 189)" stroke-width="1px" opacity="0.25"></line></g></g></g><g><g><line x1="0" y1="464.625" x2="280" y2="464.625" fill="rgb(0, 0, 0)" stroke="rgb(153, 153, 153)" stroke-width="1.5px"></line></g></g><g><g><line x1="23.333333333333332" y1="0" x2="23.333333333333332" y2="177" fill="rgb(0, 0, 0)" stroke="rgb(153, 153, 153)" stroke-width="1.5px"></line></g></g><g><g><g><g><g><path stroke="rgb(255, 112, 67)" stroke-width="2px" d="M32.666666666666664,183.04388388963886L33.833333333333336,169.04899345070876L35,156.88829816549674L36.16666666666667,143.46641704769715L37.333333333333336,129.8695690133947L38.5,123.89884652312122L39.666666666666664,115.82707014088184L40.833333333333336,112.86294716218838L42,102.55588711165512L43.16666666666667,95.80264996830154L44.33333333333333,87.32887760948134L45.5,80.2113535591642L46.666666666666664,75.30426622507284L47.833333333333336,69.5350239108351L49,67.99477517339488L50.166666666666664,66.38902520663919L51.33333333333333,65.26536700465486L52.5,63.74255000069903L53.66666666666667,57.464823821465856L54.833333333333336,54.67505102457758L56,49.734488938407154L57.166666666666664,48.41595666713226L58.333333333333336,45.15334677994545L59.5,41.689744246320885L60.66666666666667,39.422442096873034L61.83333333333333,38.60157847341665L63,36.62840688375181L64.16666666666666,34.93270127304302L65.33333333333333,31.465246264503616L66.5,30.410963379024473L67.66666666666667,30.958392527535633L68.83333333333333,30.45205841404172L70,30.1185596340722L71.16666666666666,29.10823976669723L72.33333333333334,29.09990705057152L73.5,29.218743580625183L74.66666666666667,27.140246389915532L75.83333333333333,26.93875021850409L77,27.39709093045128L78.16666666666667,27.50260925216277L79.33333333333333,27.121574413311066L80.5,26.888912851529373L81.66666666666667,25.615483936611838L82.83333333333333,25.942298875418633L84,25.502221504548757L85.16666666666666,24.305247175513173L86.33333333333334,23.738318245302384L87.5,24.151959968025118L88.66666666666666,25.071938760527992L89.83333333333334,24.774860255389772L91,24.30987410096485L92.16666666666667,24.468423475910168L93.33333333333333,23.856121367269072L94.5,23.969673410685868L95.66666666666667,24.19114920832633L96.83333333333333,24.36471557222557L98,23.940837333218788L99.16666666666667,25.24359870530161L100.33333333333333,24.877803472143437L101.5,24.23762309996015L102.66666666666666,23.849948969171866L103.83333333333334,24.984996608904783L105,24.291399509913756L106.16666666666666,24.616760105614073L107.33333333333334,26.833751053049674L108.5,25.83083987857977L109.66666666666667,24.785549143708234L110.83333333333333,25.04763606772214L112,24.218503353508655L113.16666666666667,24.984367774434297L114.33333333333333,23.999788848464124L115.5,23.88202008480099L116.66666666666667,23.1792120508806L117.83333333333333,24.00732505157327L119,23.40912165543282L120.16666666666666,24.58557598770168L121.33333333333334,24.364280992630167L122.5,24.83243325584115L123.66666666666666,25.264865131574783L124.83333333333334,24.008919078944896L126,23.404845260881636L127.16666666666667,23.244096293034094L128.33333333333331,23.681456931818694L129.5,23.351922123664092L130.66666666666666,23.006711929460415L131.83333333333334,23.087854617488443L133,22.70271277049309L134.16666666666669,22.471627662295862L135.33333333333334,23.305509286948944L136.5,24.15080288519199L137.66666666666666,24.14066925924857L138.83333333333334,23.49343258906508L140,23.262127666289206L141.16666666666666,24.691932552227122L142.33333333333331,24.869887657862193L143.5,24.237315170706133L144.66666666666669,24.009111745799103L145.83333333333334,24.7518821857241L147,23.853461080900843L148.16666666666666,23.46490448362352L149.33333333333334,23.380473087112424L150.5,23.027904266047692L151.66666666666666,22.815476771550294L152.83333333333331,22.539286062930206L154,22.81459421265975L155.16666666666669,22.53875652759588L156.33333333333334,22.373253916557516L157.5,22.564594909462883L158.66666666666666,22.533250048705103L159.83333333333331,22.513620230524662L161,22.501029987912755L162.16666666666669,22.492674040664074L163.33333333333334,22.486869220655485L164.5,22.342121532393314L165.66666666666666,22.255272919435974L166.83333333333334,22.203163751661588L168,22.655511265218152L169.16666666666666,22.60363544536827L170.33333333333331,22.571644851644034L171.5,22.39298691098643L172.66666666666669,22.44354662743062L173.83333333333334,23.100712021868496L175,22.937347639012984L176.16666666666666,22.767673259025052L177.33333333333331,23.282855024960764L178.5,23.12700350941847L179.66666666666669,23.3375969878532L180.83333333333334,23.612866637211898L182,23.169007299603148L183.16666666666666,22.901921545422734L184.33333333333334,22.74091049132147L185.5,22.643544257267674L186.66666666666666,22.804870927682185L187.83333333333331,22.5329225566093L189,22.369753533965604L190.16666666666669,23.139686390379808L191.33333333333334,22.733811834227907L192.5,22.490287100536747L193.66666666666666,23.02514453844021L194.83333333333331,22.808989024852444L196,22.678588865217467L197.16666666666669,23.622202812443344L198.33333333333334,23.165145634895673L199.5,23.03137432294253L200.66666666666666,22.668824593765525L201.83333333333334,22.591103649463076L203,23.51786887426728L204.16666666666666,23.237722705480763L205.33333333333331,23.206194490598033L206.5,22.773716694358804L207.66666666666669,23.174471501257337L208.83333333333334,22.75468290075441L210,22.678056157975103L211.16666666666666,22.78011802276892L212.33333333333331,22.51807081366136L213.5,22.52103402414649L214.66666666666669,22.3626204144879L215.83333333333334,22.5850540645077L217,22.40103243870463L218.16666666666666,22.290619463222782L219.33333333333334,22.224371677933696L220.5,22.61112875121747L221.66666666666666,22.41667725073049L222.83333333333331,23.047570368210952L224,22.67854222092658L225.16666666666669,23.072771873674572L226.33333333333334,22.69366312420475L227.5,22.466197874522855L228.66666666666666,22.481639043317212L229.83333333333331,22.490260193244207L231,22.494789331850804L232.16666666666669,22.49687381368719L233.33333333333334,22.348124288212304L234.5,22.258874572927365L235.66666666666666,22.945915196904313L236.83333333333334,22.617549118142577L238,23.008091853106794L239.16666666666666,23.13509211900518L240.33333333333331,22.876729976908482L241.5,22.576037986145096L242.66666666666669,22.395622791687043L243.83333333333334,22.431275976800578L245,22.30876558608033L246.16666666666666,23.09169959775342L247.33333333333331,22.84718130678972L248.5,22.98311597496894L249.66666666666669,22.78090228075169L250.83333333333334,22.51854136845104L252,22.361124821070632L253.16666666666666,22.824159161784515L254.33333333333334,22.544495497070717L255.5,22.653255578233566" style="fill: none;" fill="none"></path></g></g></g></g><g opacity="0.2"><g><g><g><path stroke="rgb(255, 112, 67)" stroke-width="2px" d="M31.5,184.62290266156197L32.666666666666664,163.22218278050423L33.833333333333336,148.2682121694088L35,138.7575518488884L36.16666666666667,123.40663665533066L37.333333333333336,109.51869302988052L38.5,114.954460054636L39.666666666666664,103.72889363765717L40.833333333333336,108.41885322332382L42,87.09965863823892L43.16666666666667,85.67450889945032L44.33333333333333,74.61950996518136L45.5,69.53571805357934L46.666666666666664,67.9439043402672L47.833333333333336,60.88135027885439L49,65.68443247675897L50.166666666666664,63.98041927814486L51.33333333333333,63.579887688159964L52.5,61.45833098888399L53.66666666666667,48.04825061559679L54.833333333333336,50.49039611220362L56,42.32365036010744L57.166666666666664,46.43815898895266L58.333333333333336,40.259433031082175L59.5,36.494341135025046L60.66666666666667,36.0214891433716L61.83333333333333,37.370283097028754L63,33.66864958405497L64.16666666666666,32.38914290070536L65.33333333333333,26.264063805341742L66.5,28.829539060592673L67.66666666666667,31.77953624725344L68.83333333333333,29.692557245492956L70,29.61831146478655L71.16666666666666,27.592759966850302L72.33333333333334,29.087407976388953L73.5,29.396998375654242L74.66666666666667,24.02250060439112L75.83333333333333,26.636505961418173L77,28.084601998329184L78.16666666666667,27.660886734724066L79.33333333333333,26.550022155046484L80.5,26.539920508861563L81.66666666666667,23.705340564250967L82.83333333333333,26.432521283626578L84,24.842105448246024L85.16666666666666,22.50978568196299L86.33333333333334,22.88792484998705L87.5,24.772422552108786L88.66666666666666,26.451906949281714L89.83333333333334,24.329242497682593L91,23.612394869327566L92.16666666666667,24.706247538328192L93.33333333333333,22.937668204307577L94.5,24.140001475811026L95.66666666666667,24.523362904787085L96.83333333333333,24.62506511807444L98,23.30501997470858L99.16666666666667,27.19774076342585L100.33333333333333,24.329110622406027L101.5,23.277352541685126L102.66666666666666,23.268437772989294L103.83333333333334,26.687568068504355L105,23.25100386142733L106.16666666666666,25.104800999164603L107.33333333333334,30.15923747420313L108.5,24.326473116874716L109.66666666666667,23.21761304140093L110.83333333333333,25.440766453743002L112,22.974804282188437L113.16666666666667,26.133164405822775L114.33333333333333,22.522920459508917L115.5,23.70536693930628L116.66666666666667,22.12500000000002L117.83333333333333,25.249494552612326L119,22.511816561222098L120.16666666666666,26.350257486104987L121.33333333333334,24.03233850002291L122.5,25.534661650657675L123.66666666666666,25.913512945175192L124.83333333333334,22.12500000000002L126,22.498734533786795L127.16666666666667,23.00297284126284L128.33333333333331,24.337497889995596L129.5,22.857619911432288L130.66666666666666,22.488896638155005L131.83333333333334,23.209568649530432L133,22.12500000000002L134.16666666666669,22.12500000000002L135.33333333333334,24.556331723928473L136.5,25.418743282556555L137.66666666666666,24.125468820333502L138.83333333333334,22.522577583789847L140,22.915170282125494L141.16666666666666,26.836639881134055L142.33333333333331,25.13682031631472L143.5,23.288456439971945L144.66666666666669,23.666806608438513L145.83333333333334,25.866037845611594L147,22.50582942366602L148.16666666666666,22.88206958770754L149.33333333333334,23.25382599234583L150.5,22.499051034450552L151.66666666666666,22.49683552980425L152.83333333333331,22.12500000000002L154,23.227556437253973L155.16666666666669,22.12500000000002L156.33333333333334,22.12500000000002L157.5,22.8516063988209L158.66666666666666,22.48623275756838L159.83333333333331,22.484175503253958L161,22.48214462399485L162.16666666666669,22.480140119791052L163.33333333333334,22.47816199064257L164.5,22.12500000000002L165.66666666666666,22.12500000000002L166.83333333333334,22.12500000000002L168,23.334032535553L169.16666666666666,22.52582171559336L170.33333333333331,22.523658961057684L171.5,22.12500000000002L172.66666666666669,22.51938620209696L173.83333333333334,24.086460113525412L175,22.692301064729712L176.16666666666666,22.513161689043066L177.33333333333331,24.055627673864386L178.5,22.893226236104987L179.66666666666669,23.653487205505392L180.83333333333334,24.025771111249945L182,22.503218293190024L183.16666666666666,22.501292914152167L184.33333333333334,22.499393910169623L185.5,22.49749490618708L186.66666666666666,23.046860933303854L187.83333333333331,22.12500000000002L189,22.12500000000002L190.16666666666669,24.294585675001166L191.33333333333334,22.12500000000002L192.5,22.12500000000002L193.66666666666666,23.827430695295355L194.83333333333331,22.484755754470847L196,22.482988625764868L197.16666666666669,25.03762373328211L198.33333333333334,22.479559868574164L199.5,22.830717355012915L200.66666666666666,22.12500000000002L201.83333333333334,22.47452223300936L203,24.908016711473486L204.16666666666666,22.817503452301047L205.33333333333331,23.158902168273947L206.5,22.12500000000002L207.66666666666669,23.775603711605093L208.83333333333334,22.12500000000002L210,22.563116043806097L211.16666666666666,22.933210819959662L212.33333333333331,22.12500000000002L213.5,22.52547883987429L214.66666666666669,22.12500000000002L215.83333333333334,22.91870453953745L217,22.12500000000002L218.16666666666666,22.12500000000002L219.33333333333334,22.12500000000002L220.5,23.191264361143133L221.66666666666666,22.12500000000002L222.83333333333331,23.993910044431708L224,22.12500000000002L225.16666666666669,23.664116352796576L226.33333333333334,22.12500000000002L227.5,22.12500000000002L228.66666666666666,22.50480079650881L229.83333333333331,22.50319191813471L231,22.50158303976061L232.16666666666669,22.500000536441824L233.33333333333334,22.12500000000002L234.5,22.12500000000002L235.66666666666666,23.97647613286974L236.83333333333334,22.12500000000002L238,23.593905955553076L239.16666666666666,23.325592517852805L240.33333333333331,22.48918676376345L241.5,22.12500000000002L242.66666666666669,22.12500000000002L243.83333333333334,22.484755754470847L245,22.12500000000002L246.16666666666666,24.266100615263007L247.33333333333331,22.480403870344183L248.5,23.187017977237723L249.66666666666669,22.47758173942568L250.83333333333334,22.12500000000002L252,22.12500000000002L253.16666666666666,23.5187106728554L254.33333333333334,22.12500000000002L255.5,22.816395699977896" style="fill: none;" fill="none"></path></g></g></g></g></g></g><g transform="translate(50, 177)" clip-path="url(#clip_1)"><clipPath id="clip_1"><rect width="280" height="23"></rect></clipPath><g><g><line x1="0" y1="0" x2="0" y2="5" style="visibility: inherit;" fill="rgb(0, 0, 0)" stroke="rgb(204, 204, 204)" stroke-width="1px"></line><line x1="23.333333333333332" y1="0" x2="23.333333333333332" y2="5" style="visibility: inherit;" fill="rgb(0, 0, 0)" stroke="rgb(204, 204, 204)" stroke-width="1px"></line><line x1="46.666666666666664" y1="0" x2="46.666666666666664" y2="5" style="visibility: inherit;" fill="rgb(0, 0, 0)" stroke="rgb(204, 204, 204)" stroke-width="1px"></line><line x1="70" y1="0" x2="70" y2="5" style="visibility: inherit;" fill="rgb(0, 0, 0)" stroke="rgb(204, 204, 204)" stroke-width="1px"></line><line x1="93.33333333333333" y1="0" x2="93.33333333333333" y2="5" style="visibility: inherit;" fill="rgb(0, 0, 0)" stroke="rgb(204, 204, 204)" stroke-width="1px"></line><line x1="116.66666666666667" y1="0" x2="116.66666666666667" y2="5" style="visibility: inherit;" fill="rgb(0, 0, 0)" stroke="rgb(204, 204, 204)" stroke-width="1px"></line><line x1="140" y1="0" x2="140" y2="5" style="visibility: inherit;" fill="rgb(0, 0, 0)" stroke="rgb(204, 204, 204)" stroke-width="1px"></line><line x1="163.33333333333334" y1="0" x2="163.33333333333334" y2="5" style="visibility: inherit;" fill="rgb(0, 0, 0)" stroke="rgb(204, 204, 204)" stroke-width="1px"></line><line x1="186.66666666666666" y1="0" x2="186.66666666666666" y2="5" style="visibility: inherit;" fill="rgb(0, 0, 0)" stroke="rgb(204, 204, 204)" stroke-width="1px"></line><line x1="210" y1="0" x2="210" y2="5" style="visibility: inherit;" fill="rgb(0, 0, 0)" stroke="rgb(204, 204, 204)" stroke-width="1px"></line><line x1="233.33333333333334" y1="0" x2="233.33333333333334" y2="5" style="visibility: inherit;" fill="rgb(0, 0, 0)" stroke="rgb(204, 204, 204)" stroke-width="1px"></line><line x1="256.66666666666663" y1="0" x2="256.66666666666663" y2="5" style="visibility: inherit;" fill="rgb(0, 0, 0)" stroke="rgb(204, 204, 204)" stroke-width="1px"></line><line x1="280" y1="0" x2="280" y2="5" style="visibility: inherit;" fill="rgb(0, 0, 0)" stroke="rgb(204, 204, 204)" stroke-width="1px"></line></g><g transform="translate(0, 8)"><text x="0" y="0" dx="0em" dy="0.95em" style="text-anchor: middle; visibility: hidden; font-family: Roboto, sans-serif; font-size: 12px; font-weight: 200;" fill="rgb(255, 255, 255)" stroke="none" stroke-width="1px">-20</text><text x="23.333333333333332" y="0" dx="0em" dy="0.95em" style="text-anchor: middle; visibility: inherit; font-family: Roboto, sans-serif; font-size: 12px; font-weight: 200;" fill="rgb(255, 255, 255)" stroke="none" stroke-width="1px">0</text><text x="46.666666666666664" y="0" dx="0em" dy="0.95em" style="text-anchor: middle; visibility: hidden; font-family: Roboto, sans-serif; font-size: 12px; font-weight: 200;" fill="rgb(255, 255, 255)" stroke="none" stroke-width="1px">20</text><text x="70" y="0" dx="0em" dy="0.95em" style="text-anchor: middle; visibility: inherit; font-family: Roboto, sans-serif; font-size: 12px; font-weight: 200;" fill="rgb(255, 255, 255)" stroke="none" stroke-width="1px">40</text><text x="93.33333333333333" y="0" dx="0em" dy="0.95em" style="text-anchor: middle; visibility: hidden; font-family: Roboto, sans-serif; font-size: 12px; font-weight: 200;" fill="rgb(255, 255, 255)" stroke="none" stroke-width="1px">60</text><text x="116.66666666666667" y="0" dx="0em" dy="0.95em" style="text-anchor: middle; visibility: inherit; font-family: Roboto, sans-serif; font-size: 12px; font-weight: 200;" fill="rgb(255, 255, 255)" stroke="none" stroke-width="1px">80</text><text x="140" y="0" dx="0em" dy="0.95em" style="text-anchor: middle; visibility: hidden; font-family: Roboto, sans-serif; font-size: 12px; font-weight: 200;" fill="rgb(255, 255, 255)" stroke="none" stroke-width="1px">100</text><text x="163.33333333333334" y="0" dx="0em" dy="0.95em" style="text-anchor: middle; visibility: inherit; font-family: Roboto, sans-serif; font-size: 12px; font-weight: 200;" fill="rgb(255, 255, 255)" stroke="none" stroke-width="1px">120</text><text x="186.66666666666666" y="0" dx="0em" dy="0.95em" style="text-anchor: middle; visibility: hidden; font-family: Roboto, sans-serif; font-size: 12px; font-weight: 200;" fill="rgb(255, 255, 255)" stroke="none" stroke-width="1px">140</text><text x="210" y="0" dx="0em" dy="0.95em" style="text-anchor: middle; visibility: inherit; font-family: Roboto, sans-serif; font-size: 12px; font-weight: 200;" fill="rgb(255, 255, 255)" stroke="none" stroke-width="1px">160</text><text x="233.33333333333334" y="0" dx="0em" dy="0.95em" style="text-anchor: middle; visibility: hidden; font-family: Roboto, sans-serif; font-size: 12px; font-weight: 200;" fill="rgb(255, 255, 255)" stroke="none" stroke-width="1px">180</text><text x="256.66666666666663" y="0" dx="0em" dy="0.95em" style="text-anchor: middle; visibility: inherit; font-family: Roboto, sans-serif; font-size: 12px; font-weight: 200;" fill="rgb(255, 255, 255)" stroke="none" stroke-width="1px">200</text><text x="280" y="0" dx="0em" dy="0.95em" style="text-anchor: middle; visibility: hidden; font-family: Roboto, sans-serif; font-size: 12px; font-weight: 200;" fill="rgb(255, 255, 255)" stroke="none" stroke-width="1px">220</text></g><line x1="0" y1="0" x2="280" y2="0" fill="rgb(0, 0, 0)" stroke="rgb(204, 204, 204)" stroke-width="1px"></line></g></g></g></g></svg>