<svg viewBox="0 0 330 200" xmlns="http://www.w3.org/2000/svg"><g><g><g><g><g><line x1="50" y1="177" x2="45" y2="177" style="visibility: inherit;" fill="rgb(0, 0, 0)" stroke="rgb(204, 204, 204)" stroke-width="1px"></line><line x1="50" y1="162.25" x2="45" y2="162.25" style="visibility: inherit;" fill="rgb(0, 0, 0)" stroke="rgb(204, 204, 204)" stroke-width="1px"></line><line x1="50" y1="147.50000000000006" x2="45" y2="147.50000000000006" style="visibility: inherit;" fill="rgb(0, 0, 0)" stroke="rgb(204, 204, 204)" stroke-width="1px"></line><line x1="50" y1="132.75000000000003" x2="45" y2="132.75000000000003" style="visibility: inherit;" fill="rgb(0, 0, 0)" stroke="rgb(204, 204, 204)" stroke-width="1px"></line><line x1="50" y1="118.00000000000001" x2="45" y2="118.00000000000001" style="visibility: inherit;" fill="rgb(0, 0, 0)" stroke="rgb(204, 204, 204)" stroke-width="1px"></line><line x1="50" y1="103.25000000000003" x2="45" y2="103.25000000000003" style="visibility: inherit;" fill="rgb(0, 0, 0)" stroke="rgb(204, 204, 204)" stroke-width="1px"></line><line x1="50" y1="88.5" x2="45" y2="88.5" style="visibility: inherit;" fill="rgb(0, 0, 0)" stroke="rgb(204, 204, 204)" stroke-width="1px"></line><line x1="50" y1="73.75" x2="45" y2="73.75" style="visibility: inherit;" fill="rgb(0, 0, 0)" stroke="rgb(204, 204, 204)" stroke-width="1px"></line><line x1="50" y1="59.00000000000004" x2="45" y2="59.00000000000004" style="visibility: inherit;" fill="rgb(0, 0, 0)" stroke="rgb(204, 204, 204)" stroke-width="1px"></line><line x1="50" y1="44.25000000000004" x2="45" y2="44.25000000000004" style="visibility: inherit;" fill="rgb(0, 0, 0)" stroke="rgb(204, 204, 204)" stroke-width="1px"></line><line x1="50" y1="29.500000000000032" x2="45" y2="29.500000000000032" style="visibility: inherit;" fill="rgb(0, 0, 0)" stroke="rgb(204, 204, 204)" stroke-width="1px"></line><line x1="50" y1="14.750000000000007" x2="45" y2="14.750000000000007" style="visibility: inherit;" fill="rgb(0, 0, 0)" stroke="rgb(204, 204, 204)" stroke-width="1px"></line><line x1="50" y1="0" x2="45" y2="0" style="visibility: inherit;" fill="rgb(0, 0, 0)" stroke="rgb(204, 204, 204)" stroke-width="1px"></line></g><g transform="translate(40, 0)"><text x="0" y="177" dx="0em" dy="0.3em" style="text-anchor: end; visibility: hidden; font-family: Roboto, sans-serif; font-size: 12px; font-weight: 200;" fill="rgb(255, 255, 255)" stroke="none" stroke-width="1px">0.78</text><text x="0" y="162.25" dx="0em" dy="0.3em" style="text-anchor: end; visibility: inherit; font-family: Roboto, sans-serif; font-size: 12px; font-weight: 200;" fill="rgb(255, 255, 255)" stroke="none" stroke-width="1px">0.8</text><text x="0" y="147.50000000000006" dx="0em" dy="0.3em" style="text-anchor: end; visibility: hidden; font-family: Roboto, sans-serif; font-size: 12px; font-weight: 200;" fill="rgb(255, 255, 255)" stroke="none" stroke-width="1px">0.82</text><text x="0" y="132.75000000000003" dx="0em" dy="0.3em" style="text-anchor: end; visibility: inherit; font-family: Roboto, sans-serif; font-size: 12px; font-weight: 200;" fill="rgb(255, 255, 255)" stroke="none" stroke-width="1px">0.84</text><text x="0" y="118.00000000000001" dx="0em" dy="0.3em" style="text-anchor: end; visibility: hidden; font-family: Roboto, sans-serif; font-size: 12px; font-weight: 200;" fill="rgb(255, 255, 255)" stroke="none" stroke-width="1px">0.86</text><text x="0" y="103.25000000000003" dx="0em" dy="0.3em" style="text-anchor: end; visibility: inherit; font-family: Roboto, sans-serif; font-size: 12px; font-weight: 200;" fill="rgb(255, 255, 255)" stroke="none" stroke-width="1px">0.88</text><text x="0" y="88.5" dx="0em" dy="0.3em" style="text-anchor: end; visibility: hidden; font-family: Roboto, sans-serif; font-size: 12px; font-weight: 200;" fill="rgb(255, 255, 255)" stroke="none" stroke-width="1px">0.9</text><text x="0" y="73.75" dx="0em" dy="0.3em" style="text-anchor: end; visibility: inherit; font-family: Roboto, sans-serif; font-size: 12px; font-weight: 200;" fill="rgb(255, 255, 255)" stroke="none" stroke-width="1px">0.92</text><text x="0" y="59.00000000000004" dx="0em" dy="0.3em" style="text-anchor: end; visibility: hidden; font-family: Roboto, sans-serif; font-size: 12px; font-weight: 200;" fill="rgb(255, 255, 255)" stroke="none" stroke-width="1px">0.94</text><text x="0" y="44.25000000000004" dx="0em" dy="0.3em" style="text-anchor: end; visibility: inherit; font-family: Roboto, sans-serif; font-size: 12px; font-weight: 200;" fill="rgb(255, 255, 255)" stroke="none" stroke-width="1px">0.96</text><text x="0" y="29.500000000000032" dx="0em" dy="0.3em" style="text-anchor: end; visibility: hidden; font-family: Roboto, sans-serif; font-size: 12px; font-weight: 200;" fill="rgb(255, 255, 255)" stroke="none" stroke-width="1px">0.98</text><text x="0" y="14.750000000000007" dx="0em" dy="0.3em" style="text-anchor: end; visibility: inherit; font-family: Roboto, sans-serif; font-size: 12px; font-weight: 200;" fill="rgb(255, 255, 255)" stroke="none" stroke-width="1px">1</text><text x="0" y="0" dx="0em" dy="0.3em" style="text-anchor: end; visibility: hidden; font-family: Roboto, sans-serif; font-size: 12px; font-weight: 200;" fill="rgb(255, 255, 255)" stroke="none" stroke-width="1px">1.02</text></g><line x1="50" y1="0" x2="50" y2="177" fill="rgb(0, 0, 0)" stroke="rgb(204, 204, 204)" stroke-width="1px"></line></g></g><g transform="translate(50, 0)" clip-path="url(#clip_0)"><clipPath id="clip_0"><rect width="280" height="177"></rect></clipPath><g><g><g><line x1="0" y1="0" x2="0" y2="177" fill="rgb(0, 0, 0)" stroke="rgb(189, 189, 189)" stroke-width="1px" opacity="0.25"></line><line x1="23.333333333333332" y1="0" x2="23.333333333333332" y2="177" fill="rgb(0, 0, 0)" stroke="rgb(189, 189, 189)" stroke-width="1px" opacity="0.25"></line><line x1="46.666666666666664" y1="0" x2="46.666666666666664" y2="177" fill="rgb(0, 0, 0)" stroke="rgb(189, 189, 189)" stroke-width="1px" opacity="0.25"></line><line x1="70" y1="0" x2="70" y2="177" fill="rgb(0, 0, 0)" stroke="rgb(189, 189, 189)" stroke-width="1px" opacity="0.25"></line><line x1="93.33333333333333" y1="0" x2="93.33333333333333" y2="177" fill="rgb(0, 0, 0)" stroke="rgb(189, 189, 189)" stroke-width="1px" opacity="0.25"></line><line x1="116.66666666666667" y1="0" x2="116.66666666666667" y2="177" fill="rgb(0, 0, 0)" stroke="rgb(189, 189, 189)" stroke-width="1px" opacity="0.25"></line><line x1="140" y1="0" x2="140" y2="177" fill="rgb(0, 0, 0)" stroke="rgb(189, 189, 189)" stroke-width="1px" opacity="0.25"></line><line x1="163.33333333333334" y1="0" x2="163.33333333333334" y2="177" fill="rgb(0, 0, 0)" stroke="rgb(189, 189, 189)" stroke-width="1px" opacity="0.25"></line><line x1="186.66666666666666" y1="0" x2="186.66666666666666" y2="177" fill="rgb(0, 0, 0)" stroke="rgb(189, 189, 189)" stroke-width="1px" opacity="0.25"></line><line x1="210" y1="0" x2="210" y2="177" fill="rgb(0, 0, 0)" stroke="rgb(189, 189, 189)" stroke-width="1px" opacity="0.25"></line><line x1="233.33333333333334" y1="0" x2="233.33333333333334" y2="177" fill="rgb(0, 0, 0)" stroke="rgb(189, 189, 189)" stroke-width="1px" opacity="0.25"></line><line x1="256.66666666666663" y1="0" x2="256.66666666666663" y2="177" fill="rgb(0, 0, 0)" stroke="rgb(189, 189, 189)" stroke-width="1px" opacity="0.25"></line><line x1="280" y1="0" x2="280" y2="177" fill="rgb(0, 0, 0)" stroke="rgb(189, 189, 189)" stroke-width="1px" opacity="0.25"></line></g><g><line x1="0" y1="177" x2="280" y2="177" fill="rgb(0, 0, 0)" stroke="rgb(189, 189, 189)" stroke-width="1px" opacity="0.25"></line><line x1="0" y1="162.25" x2="280" y2="162.25" fill="rgb(0, 0, 0)" stroke="rgb(189, 189, 189)" stroke-width="1px" opacity="0.25"></line><line x1="0" y1="147.50000000000006" x2="280" y2="147.50000000000006" fill="rgb(0, 0, 0)" stroke="rgb(189, 189, 189)" stroke-width="1px" opacity="0.25"></line><line x1="0" y1="132.75000000000003" x2="280" y2="132.75000000000003" fill="rgb(0, 0, 0)" stroke="rgb(189, 189, 189)" stroke-width="1px" opacity="0.25"></line><line x1="0" y1="118.00000000000001" x2="280" y2="118.00000000000001" fill="rgb(0, 0, 0)" stroke="rgb(189, 189, 189)" stroke-width="1px" opacity="0.25"></line><line x1="0" y1="103.25000000000003" x2="280" y2="103.25000000000003" fill="rgb(0, 0, 0)" stroke="rgb(189, 189, 189)" stroke-width="1px" opacity="0.25"></line><line x1="0" y1="88.5" x2="280" y2="88.5" fill="rgb(0, 0, 0)" stroke="rgb(189, 189, 189)" stroke-width="1px" opacity="0.25"></line><line x1="0" y1="73.75" x2="280" y2="73.75" fill="rgb(0, 0, 0)" stroke="rgb(189, 189, 189)" stroke-width="1px" opacity="0.25"></line><line x1="0" y1="59.00000000000004" x2="280" y2="59.00000000000004" fill="rgb(0, 0, 0)" stroke="rgb(189, 189, 189)" stroke-width="1px" opacity="0.25"></line><line x1="0" y1="44.25000000000004" x2="280" y2="44.25000000000004" fill="rgb(0, 0, 0)" stroke="rgb(189, 189, 189)" stroke-width="1px" opacity="0.25"></line><line x1="0" y1="29.500000000000032" x2="280" y2="29.500000000000032" fill="rgb(0, 0, 0)" stroke="rgb(189, 189, 189)" stroke-width="1px" opacity="0.25"></line><line x1="0" y1="14.750000000000007" x2="280" y2="14.750000000000007" fill="rgb(0, 0, 0)" stroke="rgb(189, 189, 189)" stroke-width="1px" opacity="0.25"></line><line x1="0" y1="0" x2="280" y2="0" fill="rgb(0, 0, 0)" stroke="rgb(189, 189, 189)" stroke-width="1px" opacity="0.25"></line></g></g></g><g><g><line x1="0" y1="752.25" x2="280" y2="752.25" fill="rgb(0, 0, 0)" stroke="rgb(153, 153, 153)" stroke-width="1.5px"></line></g></g><g><g><line x1="23.333333333333332" y1="0" x2="23.333333333333332" y2="177" fill="rgb(0, 0, 0)" stroke="rgb(153, 153, 153)" stroke-width="1.5px"></line></g></g><g><g><g><g><g><path stroke="rgb(255, 112, 67)" stroke-width="2px" d="M33.833333333333336,205.38928890570088L35,166.20755814314396L36.16666666666667,146.280787831843L37.333333333333336,127.39938173034524L38.5,131.7975703566965L39.666666666666664,129.25888609560425L40.833333333333336,115.13944761407767L42,111.12652111336052L43.16666666666667,96.70999789301693L44.33333333333333,98.29511340421817L45.5,91.60741458839719L46.666666666666664,77.4988514734241L47.833333333333336,80.52991219077278L49,62.647643021623956L50.166666666666664,71.43811533055553L51.33333333333333,65.96478779630752L52.5,79.5363893363191L53.66666666666667,74.30303661762146L54.833333333333336,64.46866601421702L56,72.15474026705256L57.166666666666664,75.58034925676253L58.333333333333336,63.81279200995745L59.5,52.58586117492983L60.66666666666667,45.63476411806631L61.83333333333333,55.48445290120413L63,48.088138273120535L64.16666666666666,48.323007175222074L65.33333333333333,50.78762365250868L66.5,48.82812372236479L67.66666666666667,48.29528936856905L68.83333333333333,57.2032711214525L70,47.39705029575519L71.16666666666666,45.82725702119911L72.33333333333334,39.60182447487989L73.5,43.39975549796379L74.66666666666667,45.06998883514578L75.83333333333333,44.48113275064715L77,49.505059877188486L78.16666666666667,55.69834881984282L79.33333333333333,47.57517527308897L80.5,54.42563381657676L81.66666666666667,50.78417468585204L82.83333333333333,48.12669338295658L84,68.59061286160821L85.16666666666666,62.754664476564244L86.33333333333334,60.57202404490022L87.5,49.88672304004567L88.66666666666666,44.46638293176844L89.83333333333334,49.5733482307796L91,42.35814851919377L92.16666666666667,56.38024709462938L93.33333333333333,51.5242686619746L94.5,42.15111405553732L95.66666666666667,40.32162466587006L96.83333333333333,46.7217086728894L98,47.21733172991773L99.16666666666667,47.94140120899027L100.33333333333333,50.395380881758705L101.5,46.0245861812425L102.66666666666666,47.62442163252783L103.83333333333334,41.27076623215643L105,32.09448457583404L106.16666666666666,33.52873113646878L107.33333333333334,34.49565846261243L108.5,34.68850596271085L109.66666666666667,41.436819955838544L110.83333333333333,36.662086346824665L112,43.87569990103225L113.16666666666667,35.76329952683913L114.33333333333333,35.64057350281994L115.5,38.968669439101966L116.66666666666667,30.71322650000144L117.83333333333333,29.241942788867323L119,38.01643423182257L120.16666666666666,42.10244545902298L121.33333333333334,39.63988705614499L122.5,47.674322296019206L123.66666666666666,48.0520526223396L124.83333333333334,38.129921201051125L126,36.31812386702352L127.16666666666667,35.86856572026529L128.33333333333331,34.299789024558685L129.5,29.932456072072448L130.66666666666666,32.57889109605566L131.83333333333334,33.71011198612463L133,30.984879881455957L134.16666666666669,25.92295276541383L135.33333333333334,28.22751886498261L136.5,29.45510286600181L137.66666666666666,26.920689240162307L138.83333333333334,27.022036632934004L140,32.30932602944303L141.16666666666666,40.009909830464856L142.33333333333331,33.253573418840155L143.5,35.83461015295053L144.66666666666669,36.391319113201256L145.83333333333334,27.734791467920797L147,29.030580324134714L148.16666666666666,40.45365896356188L149.33333333333334,30.17219537813713L150.5,33.90069740008862L151.66666666666666,26.240418440053173L152.83333333333331,26.3135150229629L154,26.22004685137845L155.16666666666669,24.799355753267797L156.33333333333334,20.779613451960675L157.5,24.76950391340433L158.66666666666666,23.9992228043567L159.83333333333331,37.19497211530754L161,34.678889404266805L162.16666666666669,33.34484489591696L163.33333333333334,35.37430337567194L164.5,33.61428746878536L165.66666666666666,29.224365432855134L166.83333333333334,26.56205023515024L168,24.954937512801884L169.16666666666666,23.92587516017365L170.33333333333331,20.25552509610415L171.5,36.34933926096297L172.66666666666669,34.11367798704343L173.83333333333334,35.24780874763987L175,31.493479903430135L176.16666666666666,30.894774398738345L177.33333333333331,27.632571841200694L178.5,26.141438201022474L179.66666666666669,31.42901823219797L180.83333333333334,26.18943577585892L182,33.494850215782435L183.16666666666666,29.043334518355007L184.33333333333334,23.326000711013027L185.5,25.92606340687815L186.66666666666666,24.803265564688157L187.83333333333331,23.80000416818147L189,26.210465481179217L190.16666666666669,21.62627928870756L191.33333333333334,18.87576757322453L192.5,23.2559235242051L193.66666666666666,19.85355411452309L194.83333333333331,26.85121559192097L196,25.12843672686433L197.16666666666669,23.99011318834784L198.33333333333334,23.27508216471773L199.5,19.865049298830655L200.66666666666666,38.471084723608456L201.83333333333334,28.98265083416505L203,26.181738399173067L204.16666666666666,24.590057291212826L205.33333333333331,26.496179460062432L206.5,24.71964180384507L207.66666666666669,26.634135627236613L208.83333333333334,31.14849997966683L210,30.37341336851837L211.16666666666666,31.783012416634104L212.33333333333331,36.53843421141692L213.5,40.4275939607643L214.66666666666669,47.85653949642321L215.83333333333334,52.3139068178186L217,52.35349435161641L218.16666666666666,51.91605265469006L219.33333333333334,48.618258354250486L220.5,46.639581773986755L221.66666666666666,39.66806244511029L222.83333333333331,38.29305681978833L224,34.660147472591284L225.16666666666669,35.28830783627699L226.33333333333334,35.66520405448839L227.5,38.86774919412954L228.66666666666666,32.084716772928374L229.83333333333331,28.014897320207663L231,31.30115774484681L232.16666666666669,27.54476190335877L233.33333333333334,25.29092439846591L234.5,26.747635619857263L235.66666666666666,30.54080072463652L236.83333333333334,27.088547691232552L238,27.93744199545778L239.16666666666666,25.526532453725313L240.33333333333331,24.07998672868584L241.5,28.940211389933708L242.66666666666669,26.12819409041088L243.83333333333334,24.440983710697207L245,23.42865748286901L246.16666666666666,19.957194489721406L247.33333333333331,20.73838395028352L248.5,24.12734375088832L249.66666666666669,28.968625603255205L250.83333333333334,26.14524261840375L252,21.58714557104226L253.16666666666666,18.852287342625402L254.33333333333334,22.995685786293492L255.5,19.697411471776093" style="fill: none;" fill="none"></path></g></g></g></g><g opacity="0.2"><g><g><g><path stroke="rgb(255, 112, 67)" stroke-width="2px" d="M31.5,179.49945321679115L32.666666666666664,124.26239466667178L33.833333333333336,138.7178591489792L35,107.79033741354944L36.16666666666667,116.49907296895982L37.333333333333336,99.13892364501955L38.5,138.38623678684237L39.666666666666664,125.453843832016L40.833333333333336,93.97024801373485L42,105.10882949829104L43.16666666666667,75.08887341618538L44.33333333333333,100.67254519462588L45.5,81.5764776468277L46.666666666666664,56.336780548095724L47.833333333333336,85.07640352845193L49,35.82459232211114L50.166666666666664,84.6237196624279L51.33333333333333,57.7548353970051L52.5,99.89373376965524L53.66666666666667,66.45302093029022L54.833333333333336,49.71712520718575L56,83.68384456634521L57.166666666666664,80.71876084804535L58.333333333333336,46.16146004199983L59.5,35.745467156171806L60.66666666666667,35.20811936259272L61.83333333333333,70.25898537039758L63,36.99366664886475L64.16666666666666,48.67531052231789L65.33333333333333,54.484548330307014L66.5,45.888873845338836L67.66666666666667,47.496037840843215L68.83333333333333,70.56524372100831L70,32.68771907687189L71.16666666666666,43.472567111253746L72.33333333333334,30.26367565989495L73.5,49.09665203094483L74.66666666666667,47.575338840484626L75.83333333333333,43.59784862399102L77,57.040950566530235L78.16666666666667,64.98828223347664L79.33333333333333,35.390414953231826L80.5,64.70132163167L81.66666666666667,45.32198598980904L82.83333333333333,44.14047142863275L84,99.2864920794964L85.16666666666666,54.00074189901354L86.33333333333334,57.298063397407546L87.5,33.85877153277399L88.66666666666666,36.33587276935578L89.83333333333334,57.23379617929461L91,31.535348951816566L92.16666666666667,77.41339495778085L93.33333333333333,44.24030101299287L94.5,28.091382145881667L95.66666666666667,37.57739058136942L96.83333333333333,56.32183468341828L98,47.96076631546022L99.16666666666667,49.02750542759897L100.33333333333333,54.07635039091112L101.5,39.46839413046838L102.66666666666666,50.02417480945589L103.83333333333334,31.740283131599433L105,18.330062091350577L106.16666666666666,35.68010097742083L107.33333333333334,35.94604945182801L108.5,34.977777212858214L109.66666666666667,51.559290945529945L110.83333333333333,29.49998593330384L112,54.696120232343695L113.16666666666667,23.594698965549483L114.33333333333333,35.45648446679117L115.5,43.960813343524954L116.66666666666667,18.330062091350577L117.83333333333333,27.035017222166083L119,51.1781713962555L120.16666666666666,48.23146229982378L121.33333333333334,35.94604945182801L122.5,59.725975155830405L123.66666666666666,48.61864811182024L124.83333333333334,23.246724069118507L126,33.60042786598208L127.16666666666667,35.1942285001278L128.33333333333331,31.946623980999007L129.5,23.381456643342986L130.66666666666666,36.5485436320305L131.83333333333334,35.406943321228034L133,26.89703172445298L134.16666666666669,18.330062091350577L135.33333333333334,31.68436801433564L136.5,31.296478867530837L137.66666666666666,23.119068801403053L138.83333333333334,27.17405772209169L140,40.24026012420656L141.16666666666666,51.5607855319977L142.33333333333331,23.119068801403053L143.5,39.70616525411607L144.66666666666669,37.22638255357744L145.83333333333334,14.750000000000007L147,30.97426360845568L148.16666666666666,57.58827692270281L149.33333333333334,14.750000000000007L150.5,39.49345043301584L151.66666666666666,14.750000000000007L152.83333333333331,26.423159897327437L154,26.07984459400179L155.16666666666669,22.668319106101997L156.33333333333334,14.750000000000007L157.5,30.754339605569854L158.66666666666666,22.84380114078523L159.83333333333331,56.98859608173371L161,30.904765337705633L162.16666666666669,31.343778133392355L163.33333333333334,38.41849109530451L164.5,30.97426360845568L165.66666666666666,22.639482378959677L166.83333333333334,22.568577438592925L168,22.54426842927935L169.16666666666666,22.382281631231315L170.33333333333331,14.750000000000007L171.5,60.49006050825121L172.66666666666669,30.760186076164253L173.83333333333334,36.94900488853457L175,25.8619866371155L176.16666666666666,29.99671614170076L177.33333333333331,22.739268004894264L178.5,23.904737740755095L179.66666666666669,39.360388278961196L180.83333333333334,18.330062091350577L182,44.45297187566759L183.16666666666666,22.366060972213752L184.33333333333334,14.750000000000007L185.5,29.826157450675986L186.66666666666666,23.119068801403053L187.83333333333331,22.295112073421485L189,29.826157450675986L190.16666666666669,14.750000000000007L191.33333333333334,14.750000000000007L192.5,29.826157450675986L193.66666666666666,14.750000000000007L194.83333333333331,37.347707808017745L196,22.54426842927935L197.16666666666669,22.282627880573294L198.33333333333334,22.202535629272468L199.5,14.750000000000007L200.66666666666666,66.38013786077501L201.83333333333334,14.750000000000007L203,21.98036974668505L204.16666666666666,22.202535629272468L205.33333333333331,29.355362713336966L206.5,22.05483531951905L207.66666666666669,29.505876362323775L208.83333333333334,37.92004650831224L210,29.210783451795585L211.16666666666666,33.8974109888077L212.33333333333331,43.67156690359116L213.5,46.26133358478547L214.66666666666669,58.999957799911506L215.83333333333334,58.999957799911506L217,52.41287565231325L218.16666666666666,51.25989010930063L219.33333333333334,43.67156690359116L220.5,43.67156690359116L221.66666666666666,29.210783451795585L222.83333333333331,36.23054838180544L224,29.210783451795585L225.16666666666669,36.23054838180544L226.33333333333334,36.23054838180544L227.5,43.67156690359116L228.66666666666666,21.91016814112664L229.83333333333331,21.91016814112664L231,36.23054838180544L232.16666666666669,21.91016814112664L233.33333333333334,21.91016814112664L234.5,28.932702451944373L235.66666666666666,36.23054838180544L236.83333333333334,21.91016814112664L238,29.210783451795585L239.16666666666666,21.91016814112664L240.33333333333331,21.91016814112664L241.5,36.23054838180544L242.66666666666669,21.91016814112664L243.83333333333334,21.91016814112664L245,21.91016814112664L246.16666666666666,14.750000000000007L247.33333333333331,21.91016814112664L248.5,29.210783451795585L249.66666666666669,36.23054838180544L250.83333333333334,21.91016814112664L252,14.750000000000007L253.16666666666666,14.750000000000007L254.33333333333334,29.210783451795585L255.5,14.750000000000007" style="fill: none;" fill="none"></path></g></g></g></g></g></g><g transform="translate(50, 177)" clip-path="url(#clip_1)"><clipPath id="clip_1"><rect width="280" height="23"></rect></clipPath><g><g><line x1="0" y1="0" x2="0" y2="5" style="visibility: inherit;" fill="rgb(0, 0, 0)" stroke="rgb(204, 204, 204)" stroke-width="1px"></line><line x1="23.333333333333332" y1="0" x2="23.333333333333332" y2="5" style="visibility: inherit;" fill="rgb(0, 0, 0)" stroke="rgb(204, 204, 204)" stroke-width="1px"></line><line x1="46.666666666666664" y1="0" x2="46.666666666666664" y2="5" style="visibility: inherit;" fill="rgb(0, 0, 0)" stroke="rgb(204, 204, 204)" stroke-width="1px"></line><line x1="70" y1="0" x2="70" y2="5" style="visibility: inherit;" fill="rgb(0, 0, 0)" stroke="rgb(204, 204, 204)" stroke-width="1px"></line><line x1="93.33333333333333" y1="0" x2="93.33333333333333" y2="5" style="visibility: inherit;" fill="rgb(0, 0, 0)" stroke="rgb(204, 204, 204)" stroke-width="1px"></line><line x1="116.66666666666667" y1="0" x2="116.66666666666667" y2="5" style="visibility: inherit;" fill="rgb(0, 0, 0)" stroke="rgb(204, 204, 204)" stroke-width="1px"></line><line x1="140" y1="0" x2="140" y2="5" style="visibility: inherit;" fill="rgb(0, 0, 0)" stroke="rgb(204, 204, 204)" stroke-width="1px"></line><line x1="163.33333333333334" y1="0" x2="163.33333333333334" y2="5" style="visibility: inherit;" fill="rgb(0, 0, 0)" stroke="rgb(204, 204, 204)" stroke-width="1px"></line><line x1="186.66666666666666" y1="0" x2="186.66666666666666" y2="5" style="visibility: inherit;" fill="rgb(0, 0, 0)" stroke="rgb(204, 204, 204)" stroke-width="1px"></line><line x1="210" y1="0" x2="210" y2="5" style="visibility: inherit;" fill="rgb(0, 0, 0)" stroke="rgb(204, 204, 204)" stroke-width="1px"></line><line x1="233.33333333333334" y1="0" x2="233.33333333333334" y2="5" style="visibility: inherit;" fill="rgb(0, 0, 0)" stroke="rgb(204, 204, 204)" stroke-width="1px"></line><line x1="256.66666666666663" y1="0" x2="256.66666666666663" y2="5" style="visibility: inherit;" fill="rgb(0, 0, 0)" stroke="rgb(204, 204, 204)" stroke-width="1px"></line><line x1="280" y1="0" x2="280" y2="5" style="visibility: inherit;" fill="rgb(0, 0, 0)" stroke="rgb(204, 204, 204)" stroke-width="1px"></line></g><g transform="translate(0, 8)"><text x="0" y="0" dx="0em" dy="0.95em" style="text-anchor: middle; visibility: hidden; font-family: Roboto, sans-serif; font-size: 12px; font-weight: 200;" fill="rgb(255, 255, 255)" stroke="none" stroke-width="1px">-20</text><text x="23.333333333333332" y="0" dx="0em" dy="0.95em" style="text-anchor: middle; visibility: inherit; font-family: Roboto, sans-serif; font-size: 12px; font-weight: 200;" fill="rgb(255, 255, 255)" stroke="none" stroke-width="1px">0</text><text x="46.666666666666664" y="0" dx="0em" dy="0.95em" style="text-anchor: middle; visibility: hidden; font-family: Roboto, sans-serif; font-size: 12px; font-weight: 200;" fill="rgb(255, 255, 255)" stroke="none" stroke-width="1px">20</text><text x="70" y="0" dx="0em" dy="0.95em" style="text-anchor: middle; visibility: inherit; font-family: Roboto, sans-serif; font-size: 12px; font-weight: 200;" fill="rgb(255, 255, 255)" stroke="none" stroke-width="1px">40</text><text x="93.33333333333333" y="0" dx="0em" dy="0.95em" style="text-anchor: middle; visibility: hidden; font-family: Roboto, sans-serif; font-size: 12px; font-weight: 200;" fill="rgb(255, 255, 255)" stroke="none" stroke-width="1px">60</text><text x="116.66666666666667" y="0" dx="0em" dy="0.95em" style="text-anchor: middle; visibility: inherit; font-family: Roboto, sans-serif; font-size: 12px; font-weight: 200;" fill="rgb(255, 255, 255)" stroke="none" stroke-width="1px">80</text><text x="140" y="0" dx="0em" dy="0.95em" style="text-anchor: middle; visibility: hidden; font-family: Roboto, sans-serif; font-size: 12px; font-weight: 200;" fill="rgb(255, 255, 255)" stroke="none" stroke-width="1px">100</text><text x="163.33333333333334" y="0" dx="0em" dy="0.95em" style="text-anchor: middle; visibility: inherit; font-family: Roboto, sans-serif; font-size: 12px; font-weight: 200;" fill="rgb(255, 255, 255)" stroke="none" stroke-width="1px">120</text><text x="186.66666666666666" y="0" dx="0em" dy="0.95em" style="text-anchor: middle; visibility: hidden; font-family: Roboto, sans-serif; font-size: 12px; font-weight: 200;" fill="rgb(255, 255, 255)" stroke="none" stroke-width="1px">140</text><text x="210" y="0" dx="0em" dy="0.95em" style="text-anchor: middle; visibility: inherit; font-family: Roboto, sans-serif; font-size: 12px; font-weight: 200;" fill="rgb(255, 255, 255)" stroke="none" stroke-width="1px">160</text><text x="233.33333333333334" y="0" dx="0em" dy="0.95em" style="text-anchor: middle; visibility: hidden; font-family: Roboto, sans-serif; font-size: 12px; font-weight: 200;" fill="rgb(255, 255, 255)" stroke="none" stroke-width="1px">180</text><text x="256.66666666666663" y="0" dx="0em" dy="0.95em" style="text-anchor: middle; visibility: inherit; font-family: Roboto, sans-serif; font-size: 12px; font-weight: 200;" fill="rgb(255, 255, 255)" stroke="none" stroke-width="1px">200</text><text x="280" y="0" dx="0em" dy="0.95em" style="text-anchor: middle; visibility: hidden; font-family: Roboto, sans-serif; font-size: 12px; font-weight: 200;" fill="rgb(255, 255, 255)" stroke="none" stroke-width="1px">220</text></g><line x1="0" y1="0" x2="280" y2="0" fill="rgb(0, 0, 0)" stroke="rgb(204, 204, 204)" stroke-width="1px"></line></g></g></g></g></svg>