<svg viewBox="0 0 330 200" xmlns="http://www.w3.org/2000/svg"><g><g><g><g><g><line x1="51.5625" y1="177" x2="46.5625" y2="177" style="visibility: inherit;" fill="rgb(0, 0, 0)" stroke="rgb(204, 204, 204)" stroke-width="1px"></line><line x1="51.5625" y1="160.9090909090909" x2="46.5625" y2="160.9090909090909" style="visibility: inherit;" fill="rgb(0, 0, 0)" stroke="rgb(204, 204, 204)" stroke-width="1px"></line><line x1="51.5625" y1="144.8181818181818" x2="46.5625" y2="144.8181818181818" style="visibility: inherit;" fill="rgb(0, 0, 0)" stroke="rgb(204, 204, 204)" stroke-width="1px"></line><line x1="51.5625" y1="128.72727272727272" x2="46.5625" y2="128.72727272727272" style="visibility: inherit;" fill="rgb(0, 0, 0)" stroke="rgb(204, 204, 204)" stroke-width="1px"></line><line x1="51.5625" y1="112.63636363636365" x2="46.5625" y2="112.63636363636365" style="visibility: inherit;" fill="rgb(0, 0, 0)" stroke="rgb(204, 204, 204)" stroke-width="1px"></line><line x1="51.5625" y1="96.54545454545453" x2="46.5625" y2="96.54545454545453" style="visibility: inherit;" fill="rgb(0, 0, 0)" stroke="rgb(204, 204, 204)" stroke-width="1px"></line><line x1="51.5625" y1="80.45454545454544" x2="46.5625" y2="80.45454545454544" style="visibility: inherit;" fill="rgb(0, 0, 0)" stroke="rgb(204, 204, 204)" stroke-width="1px"></line><line x1="51.5625" y1="64.36363636363639" x2="46.5625" y2="64.36363636363639" style="visibility: inherit;" fill="rgb(0, 0, 0)" stroke="rgb(204, 204, 204)" stroke-width="1px"></line><line x1="51.5625" y1="48.272727272727266" x2="46.5625" y2="48.272727272727266" style="visibility: inherit;" fill="rgb(0, 0, 0)" stroke="rgb(204, 204, 204)" stroke-width="1px"></line><line x1="51.5625" y1="32.181818181818215" x2="46.5625" y2="32.181818181818215" style="visibility: inherit;" fill="rgb(0, 0, 0)" stroke="rgb(204, 204, 204)" stroke-width="1px"></line><line x1="51.5625" y1="16.090909090909097" x2="46.5625" y2="16.090909090909097" style="visibility: inherit;" fill="rgb(0, 0, 0)" stroke="rgb(204, 204, 204)" stroke-width="1px"></line><line x1="51.5625" y1="0" x2="46.5625" y2="0" style="visibility: inherit;" fill="rgb(0, 0, 0)" stroke="rgb(204, 204, 204)" stroke-width="1px"></line></g><g transform="translate(41.5625, 0)"><text x="0" y="177" dx="0em" dy="0.3em" style="text-anchor: end; visibility: hidden; font-family: Roboto, sans-serif; font-size: 12px; font-weight: 200;" fill="rgb(255, 255, 255)" stroke="none" stroke-width="1px">0.5</text><text x="0" y="160.9090909090909" dx="0em" dy="0.3em" style="text-anchor: end; visibility: inherit; font-family: Roboto, sans-serif; font-size: 12px; font-weight: 200;" fill="rgb(255, 255, 255)" stroke="none" stroke-width="1px">0.55</text><text x="0" y="144.8181818181818" dx="0em" dy="0.3em" style="text-anchor: end; visibility: hidden; font-family: Roboto, sans-serif; font-size: 12px; font-weight: 200;" fill="rgb(255, 255, 255)" stroke="none" stroke-width="1px">0.6</text><text x="0" y="128.72727272727272" dx="0em" dy="0.3em" style="text-anchor: end; visibility: inherit; font-family: Roboto, sans-serif; font-size: 12px; font-weight: 200;" fill="rgb(255, 255, 255)" stroke="none" stroke-width="1px">0.65</text><text x="0" y="112.63636363636365" dx="0em" dy="0.3em" style="text-anchor: end; visibility: hidden; font-family: Roboto, sans-serif; font-size: 12px; font-weight: 200;" fill="rgb(255, 255, 255)" stroke="none" stroke-width="1px">0.7</text><text x="0" y="96.54545454545453" dx="0em" dy="0.3em" style="text-anchor: end; visibility: inherit; font-family: Roboto, sans-serif; font-size: 12px; font-weight: 200;" fill="rgb(255, 255, 255)" stroke="none" stroke-width="1px">0.75</text><text x="0" y="80.45454545454544" dx="0em" dy="0.3em" style="text-anchor: end; visibility: hidden; font-family: Roboto, sans-serif; font-size: 12px; font-weight: 200;" fill="rgb(255, 255, 255)" stroke="none" stroke-width="1px">0.8</text><text x="0" y="64.36363636363639" dx="0em" dy="0.3em" style="text-anchor: end; visibility: inherit; font-family: Roboto, sans-serif; font-size: 12px; font-weight: 200;" fill="rgb(255, 255, 255)" stroke="none" stroke-width="1px">0.85</text><text x="0" y="48.272727272727266" dx="0em" dy="0.3em" style="text-anchor: end; visibility: hidden; font-family: Roboto, sans-serif; font-size: 12px; font-weight: 200;" fill="rgb(255, 255, 255)" stroke="none" stroke-width="1px">0.9</text><text x="0" y="32.181818181818215" dx="0em" dy="0.3em" style="text-anchor: end; visibility: inherit; font-family: Roboto, sans-serif; font-size: 12px; font-weight: 200;" fill="rgb(255, 255, 255)" stroke="none" stroke-width="1px">0.95</text><text x="0" y="16.090909090909097" dx="0em" dy="0.3em" style="text-anchor: end; visibility: hidden; font-family: Roboto, sans-serif; font-size: 12px; font-weight: 200;" fill="rgb(255, 255, 255)" stroke="none" stroke-width="1px">1</text><text x="0" y="0" dx="0em" dy="0.3em" style="text-anchor: end; visibility: hidden; font-family: Roboto, sans-serif; font-size: 12px; font-weight: 200;" fill="rgb(255, 255, 255)" stroke="none" stroke-width="1px">1.05</text></g><line x1="51.5625" y1="0" x2="51.5625" y2="177" fill="rgb(0, 0, 0)" stroke="rgb(204, 204, 204)" stroke-width="1px"></line></g></g><g transform="translate(51, 0)" clip-path="url(#clip_0)"><clipPath id="clip_0"><rect width="278" height="177"></rect></clipPath><g><g><g><line x1="0" y1="0" x2="0" y2="177" fill="rgb(0, 0, 0)" stroke="rgb(189, 189, 189)" stroke-width="1px" opacity="0.25"></line><line x1="23.203125" y1="0" x2="23.203125" y2="177" fill="rgb(0, 0, 0)" stroke="rgb(189, 189, 189)" stroke-width="1px" opacity="0.25"></line><line x1="46.40625" y1="0" x2="46.40625" y2="177" fill="rgb(0, 0, 0)" stroke="rgb(189, 189, 189)" stroke-width="1px" opacity="0.25"></line><line x1="69.609375" y1="0" x2="69.609375" y2="177" fill="rgb(0, 0, 0)" stroke="rgb(189, 189, 189)" stroke-width="1px" opacity="0.25"></line><line x1="92.8125" y1="0" x2="92.8125" y2="177" fill="rgb(0, 0, 0)" stroke="rgb(189, 189, 189)" stroke-width="1px" opacity="0.25"></line><line x1="116.015625" y1="0" x2="116.015625" y2="177" fill="rgb(0, 0, 0)" stroke="rgb(189, 189, 189)" stroke-width="1px" opacity="0.25"></line><line x1="139.21875" y1="0" x2="139.21875" y2="177" fill="rgb(0, 0, 0)" stroke="rgb(189, 189, 189)" stroke-width="1px" opacity="0.25"></line><line x1="162.421875" y1="0" x2="162.421875" y2="177" fill="rgb(0, 0, 0)" stroke="rgb(189, 189, 189)" stroke-width="1px" opacity="0.25"></line><line x1="185.625" y1="0" x2="185.625" y2="177" fill="rgb(0, 0, 0)" stroke="rgb(189, 189, 189)" stroke-width="1px" opacity="0.25"></line><line x1="208.828125" y1="0" x2="208.828125" y2="177" fill="rgb(0, 0, 0)" stroke="rgb(189, 189, 189)" stroke-width="1px" opacity="0.25"></line><line x1="232.03125" y1="0" x2="232.03125" y2="177" fill="rgb(0, 0, 0)" stroke="rgb(189, 189, 189)" stroke-width="1px" opacity="0.25"></line><line x1="255.234375" y1="0" x2="255.234375" y2="177" fill="rgb(0, 0, 0)" stroke="rgb(189, 189, 189)" stroke-width="1px" opacity="0.25"></line><line x1="278.4375" y1="0" x2="278.4375" y2="177" fill="rgb(0, 0, 0)" stroke="rgb(189, 189, 189)" stroke-width="1px" opacity="0.25"></line></g><g><line x1="0" y1="177" x2="278.4375" y2="177" fill="rgb(0, 0, 0)" stroke="rgb(189, 189, 189)" stroke-width="1px" opacity="0.25"></line><line x1="0" y1="160.9090909090909" x2="278.4375" y2="160.9090909090909" fill="rgb(0, 0, 0)" stroke="rgb(189, 189, 189)" stroke-width="1px" opacity="0.25"></line><line x1="0" y1="144.8181818181818" x2="278.4375" y2="144.8181818181818" fill="rgb(0, 0, 0)" stroke="rgb(189, 189, 189)" stroke-width="1px" opacity="0.25"></line><line x1="0" y1="128.72727272727272" x2="278.4375" y2="128.72727272727272" fill="rgb(0, 0, 0)" stroke="rgb(189, 189, 189)" stroke-width="1px" opacity="0.25"></line><line x1="0" y1="112.63636363636365" x2="278.4375" y2="112.63636363636365" fill="rgb(0, 0, 0)" stroke="rgb(189, 189, 189)" stroke-width="1px" opacity="0.25"></line><line x1="0" y1="96.54545454545453" x2="278.4375" y2="96.54545454545453" fill="rgb(0, 0, 0)" stroke="rgb(189, 189, 189)" stroke-width="1px" opacity="0.25"></line><line x1="0" y1="80.45454545454544" x2="278.4375" y2="80.45454545454544" fill="rgb(0, 0, 0)" stroke="rgb(189, 189, 189)" stroke-width="1px" opacity="0.25"></line><line x1="0" y1="64.36363636363639" x2="278.4375" y2="64.36363636363639" fill="rgb(0, 0, 0)" stroke="rgb(189, 189, 189)" stroke-width="1px" opacity="0.25"></line><line x1="0" y1="48.272727272727266" x2="278.4375" y2="48.272727272727266" fill="rgb(0, 0, 0)" stroke="rgb(189, 189, 189)" stroke-width="1px" opacity="0.25"></line><line x1="0" y1="32.181818181818215" x2="278.4375" y2="32.181818181818215" fill="rgb(0, 0, 0)" stroke="rgb(189, 189, 189)" stroke-width="1px" opacity="0.25"></line><line x1="0" y1="16.090909090909097" x2="278.4375" y2="16.090909090909097" fill="rgb(0, 0, 0)" stroke="rgb(189, 189, 189)" stroke-width="1px" opacity="0.25"></line><line x1="0" y1="0" x2="278.4375" y2="0" fill="rgb(0, 0, 0)" stroke="rgb(189, 189, 189)" stroke-width="1px" opacity="0.25"></line></g></g></g><g><g><line x1="0" y1="337.90909090909093" x2="278.4375" y2="337.90909090909093" fill="rgb(0, 0, 0)" stroke="rgb(153, 153, 153)" stroke-width="1.5px"></line></g></g><g><g><line x1="23.203125" y1="0" x2="23.203125" y2="177" fill="rgb(0, 0, 0)" stroke="rgb(153, 153, 153)" stroke-width="1.5px"></line></g></g><g><g><g><g><g><path stroke="rgb(255, 112, 67)" stroke-width="2px" d="M32.484375,193.76200647502395L33.64453125,164.62191603828794L34.8046875,155.55912757232224L35.96484375000001,160.0137231822385L37.125,165.5281646529812L38.28515625,142.143577720098L39.4453125,129.30836789136058L40.60546875,117.60662213022968L41.765625,111.53745796757138L42.92578125,103.34560417819873L44.0859375,95.98157432521931L45.24609375,88.51798973521414L46.40625,82.32847860246976L47.56640625,77.3583845223135L48.7265625,71.0967219632613L49.88671875,71.52835721660355L51.04687499999999,67.45029887017994L52.20703125,61.80769916540025L53.36718750000001,60.596219559975495L54.52734375,56.516702300401775L55.6875,51.22368605978593L56.84765625,53.8026665409695L58.0078125,51.66620108682318L59.16796875,47.58662470578508L60.328125,46.83278304553022L61.48828125,44.02120149336725L62.6484375,46.7577196755432L63.80859375,44.692958888424215L64.96875,38.94415592554278L66.12890625,40.90163392958189L67.2890625,40.21929381094369L68.44921875,39.33031258888072L69.609375,35.5033527283846L70.76953125,33.154081429948214L71.92968750000001,31.692451415128023L73.08984375,34.08473728147313L74.25,33.190556497111835L75.41015625,28.756816144042745L76.5703125,31.15981527834849L77.73046875,27.49422244766354L78.890625,26.053555285872736L80.05078125,45.06931744479026L81.2109375,36.542885149075495L82.37109375,30.64045448572943L83.53125,30.506891089236778L84.69140624999999,29.258301655438473L85.8515625,27.935886647475897L87.01171875,27.63920173904584L88.171875,29.221901250142828L89.33203125000001,26.79778500875791L90.4921875,27.625511395546894L91.65234375,27.515102790905377L92.8125,27.44403914528794L93.97265625,26.342140372826183L95.1328125,25.162876095477465L96.29296875,23.722294319062936L97.453125,23.244283227069015L98.61328125,21.404574696983552L99.7734375,21.086185298855888L100.93359375,23.264732665769262L102.09374999999999,21.55768523738992L103.25390625,21.87744519894143L104.4140625,20.54547899833215L105.57421875,22.37399137051533L106.73437500000001,22.00464571841626L107.89453125,21.56045204217263L109.0546875,20.32617271594857L110.21484375,20.76700810691399L111.375,21.75236358052357L112.53515625,21.353393988102393L113.6953125,20.91430606837637L114.85546875,22.149677696201604L116.015625,20.182652447771353L117.17578125,20.218720576744968L118.3359375,20.36797452175611L119.49609374999999,20.67395963356924L120.65625,20.429964058478525L121.81640625,20.38058088051614L122.9765625,20.35095097373872L124.13671875000001,19.52262442071894L125.296875,19.019720476516945L126.45703125,19.5480308325799L127.6171875,20.71714425145948L128.77734375,21.00357826875176L129.9375,19.46195395837686L131.09765625,18.534217184540918L132.2578125,19.228677307656167L133.41796875,18.804067762656558L134.578125,17.718804293957565L135.73828125,19.75317544476331L136.8984375,19.91772941139479L138.05859375,18.791799877588645L139.21875,18.11371782473824L140.37890625,17.70436727869138L141.5390625,17.058984003578452L142.69921875,17.856364231936688L143.85937500000003,17.150182175525657L145.01953125,16.726472941679024L146.1796875,16.859981814518015L147.33984375,18.414082520356974L148.5,17.867928570219796L149.66015625,17.157120778495543L150.8203125,16.730636103460967L151.98046874999997,17.227533495350734L153.140625,17.964798378682406L154.30078125,18.801689772448704L155.4609375,17.71737749983288L156.62109375,17.06679013626335L157.78125,17.938465892088505L158.94140625,18.852412965456644L160.1015625,18.11145341462221L161.26171875000003,18.026422438149854L162.421875,18.330935761515523L163.58203125,17.43492509327298L164.7421875,17.252919656266748L165.90234375,16.788115430123675L167.0625,17.564373216342837L168.22265625,16.974987566169364L169.38281249999997,16.969269051154015L170.54296875,16.963965792764053L171.703125,16.958934706579406L172.86328125,16.611724460311283L174.0234375,18.142955015250926L175.18359375,17.660888265026564L176.34375,20.71081845408042L177.50390625,19.533314369428705L178.66406250000003,19.156824283458647L179.82421875,18.262227629490134L180.984375,17.393700214057734L182.14453125,17.200969508026134L183.3046875,18.976378432082885L184.46484375,20.120890898208454L185.625,18.50889817528874L186.78515624999997,20.01722878769444L187.9453125,19.087129452071114L189.10546875,18.529069850697137L190.265625,18.191072919606846L191.42578125,20.14942569326468L192.5859375,18.526019052322475L193.74609375,17.551975067757105L194.90625,16.967548677017923L196.06640625000003,16.927823094649582L197.2265625,16.90249923301601L198.38671875,17.193784976960032L199.546875,16.752634622539667L200.70703125,16.487944409887437L201.8671875,16.329130282296095L203.02734375,16.233841805741285L204.18749999999997,16.47743258692656L205.34765625,16.322823188519568L206.5078125,16.52803621075248L207.66796875,16.35318536281514L208.828125,16.543522018692297L209.98828125,16.36247684757902L211.1484375,16.253849744911083L212.30859375,16.1886734833103L213.46875000000003,16.14956772634983L214.62890625,16.12610427217355L215.7890625,16.11202619966778L216.94921875,16.103579356164285L218.109375,16.668097353674945L219.26953125,16.437222048568614L220.4296875,17.437876745473634L221.58984374999997,17.468675787260562L222.75,17.48715521233272L223.91015625,17.498242867376007L225.0703125,16.935309356789254L226.23046875,17.167135354049933L227.390625,17.30623095240633L228.55078125,16.820102207807455L229.7109375,17.098011064660845L230.87109375000003,16.695170275160148L232.03125,16.45346580145972L233.19140625,16.30844311723946L234.3515625,16.22142950670734L235.51171875,16.738807444000763L236.671875,17.04923420637683L237.83203125,16.665904160189736L238.99218749999997,16.435906132477466L240.15234375,16.297907315850118L241.3125,16.215108025873715L242.47265625,16.16542845188787L243.6328125,16.135620707496354L244.79296875,16.11773606086144L245.953125,16.676591376493217L247.11328125,16.44231846225955L248.27343750000003,16.30175471371937L249.43359375,16.21741646459526L250.59375,16.166813515120808L251.75390625,16.706037849048858L252.9140625,18.168752329374506L254.07421875,17.337615033988335" style="fill: none;" fill="none"></path></g></g></g></g><g opacity="0.2"><g><g><g><path stroke="rgb(255, 112, 67)" stroke-width="2px" d="M31.32421875,208.46347484805366L32.484375,150.23992642489347L33.64453125,121.35227784243497L34.8046875,142.04714369773865L35.96484375000001,166.6713748845187L37.125,173.78182125091553L38.28515625,107.11251016096637L39.4453125,110.07064045559278L40.60546875,100.06225646625867L41.765625,102.43627999045633L42.92578125,91.05990340492941L44.0859375,84.93665138157932L45.24609375,77.32329505140132L46.40625,73.04455135085367L47.56640625,69.90340694514188L48.7265625,61.704351750287145L49.88671875,72.17580498348585L51.04687499999999,61.33324033563788L52.20703125,53.343823671340964L53.36718750000001,58.77900325168263L54.52734375,50.39743267406117L55.6875,43.28416657447817L56.84765625,57.67113583738155L58.0078125,48.46150361407887L59.16796875,41.467260945927016L60.328125,45.70202064514162L61.48828125,39.80382936651058L62.6484375,50.862496831200346L63.80859375,41.59581776098772L64.96875,30.320951570164095L66.12890625,43.837850917469375L67.2890625,39.195783636786736L68.44921875,37.99684075875717L69.609375,29.762912945313893L70.76953125,29.630174485119912L71.92968750000001,29.50000639395281L73.08984375,37.67316607995468L74.25,31.849285320802174L75.41015625,22.106205615130353L76.5703125,34.76431397958237L77.73046875,21.995833201841887L78.890625,23.8925545432351L80.05078125,73.59296068278226L81.2109375,23.753236705606646L82.37109375,21.786808490753195L83.53125,30.306545994498528L84.69140624999999,27.385417504744108L85.8515625,25.952264135534122L87.01171875,27.19417437640104L88.171875,31.595950516787457L89.33203125000001,23.161610646681364L90.4921875,28.867100975730217L91.65234375,27.349489883943043L92.8125,27.337443676861856L93.97265625,24.689292214133538L95.1328125,23.393979679454475L96.29296875,21.561421654441155L97.453125,22.527266589078042L98.61328125,18.64501190185549L99.7734375,20.60860120166434L100.93359375,26.532553716139372L102.09374999999999,18.997114094820905L103.25390625,22.35708514126866L104.4140625,18.547529697418234L105.57421875,25.11675992879002L106.73437500000001,21.450627240267682L107.89453125,20.89416152780707L109.0546875,18.47475372661246L110.21484375,21.428261193362165L111.375,23.230396790937956L112.53515625,20.75493959947067L113.6953125,20.255674188787296L114.85546875,24.002735137939474L116.015625,17.23211457512597L117.17578125,20.272822770205426L118.3359375,20.59185543927281L119.49609374999999,21.132937301288973L120.65625,20.063970695842414L121.81640625,20.30650611357256L122.9765625,20.30650611357256L124.13671875000001,18.280134591189313L125.296875,18.26536456021397L126.45703125,20.34049636667426L127.6171875,22.47081437977879L128.77734375,21.433229294690225L129.9375,17.149517492814503L131.09765625,17.142612023787077L132.2578125,20.27036749232901L133.41796875,18.167153445157144L134.578125,16.090909090909097L135.73828125,22.804732170971963L136.8984375,20.16456036134201L138.05859375,17.102905576879337L139.21875,17.096594745462603L140.37890625,17.0903414596211L141.5390625,16.090909090909097L142.69921875,19.052434574474006L143.85937500000003,16.090909090909097L145.01953125,16.090909090909097L146.1796875,17.06024512377653L147.33984375,20.745233579115446L148.5,17.048697645013995L149.66015625,16.090909090909097L150.8203125,16.090909090909097L151.98046874999997,17.97287958318538L153.140625,19.070695703679874L154.30078125,20.057026863098166L155.4609375,16.090909090909097L156.62109375,16.090909090909097L157.78125,19.245979525826197L158.94140625,20.223333575508814L160.1015625,17.000014088370598L161.26171875000003,17.8988759734414L162.421875,18.787705746564004L163.58203125,16.090909090909097L164.7421875,16.979911500757403L165.90234375,16.090909090909097L167.0625,18.728759895671516L168.22265625,16.090909090909097L169.38281249999997,16.960691278631046L170.54296875,16.956010905179117L171.703125,16.95138807730242L172.86328125,16.090909090909097L174.0234375,20.439800847660432L175.18359375,16.93778813969007L176.34375,25.285713737661197L177.50390625,17.767058242451082L178.66406250000003,18.592089154503565L179.82421875,16.92033264853738L180.984375,16.090909090909097L182.14453125,16.911873448978792L183.3046875,21.63949181816796L184.46484375,21.837659597396872L185.625,16.090909090909097L186.78515624999997,22.27972470630301L187.9453125,17.691980448636148L189.10546875,17.691980448636148L190.265625,17.684077522971428L191.42578125,23.086954853751458L192.5859375,16.090909090909097L193.74609375,16.090909090909097L194.90625,16.090909090909097L196.06640625000003,16.868234721097085L197.2265625,16.86451344056564L198.38671875,17.630713592876106L199.546875,16.090909090909097L200.70703125,16.090909090909097L201.8671875,16.090909090909097L203.02734375,16.090909090909097L204.18749999999997,16.84281875870446L205.34765625,16.090909090909097L206.5078125,16.8358557441018L207.66796875,16.090909090909097L208.828125,16.829027002508L209.98828125,16.090909090909097L211.1484375,16.090909090909097L212.30859375,16.090909090909097L213.46875000000003,16.090909090909097L214.62890625,16.090909090909097L215.7890625,16.090909090909097L216.94921875,16.090909090909097L218.109375,17.514874349940925L219.26953125,16.090909090909097L220.4296875,18.938858790831144L221.58984374999997,17.514874349940925L222.75,17.514874349940925L223.91015625,17.514874349940925L225.0703125,16.090909090909097L226.23046875,17.514874349940925L227.390625,17.514874349940925L228.55078125,16.090909090909097L229.7109375,17.514874349940925L230.87109375000003,16.090909090909097L232.03125,16.090909090909097L233.19140625,16.090909090909097L234.3515625,16.090909090909097L235.51171875,17.514874349940925L236.671875,17.514874349940925L237.83203125,16.090909090909097L238.99218749999997,16.090909090909097L240.15234375,16.090909090909097L241.3125,16.090909090909097L242.47265625,16.090909090909097L243.6328125,16.090909090909097L244.79296875,16.090909090909097L245.953125,17.514874349940925L247.11328125,16.090909090909097L248.27343750000003,16.090909090909097L249.43359375,16.090909090909097L250.59375,16.090909090909097L251.75390625,17.514874349940925L252.9140625,20.362824049862954L254.07421875,16.090909090909097" style="fill: none;" fill="none"></path></g></g></g></g></g></g><g transform="translate(51, 177)" clip-path="url(#clip_1)"><clipPath id="clip_1"><rect width="278" height="23"></rect></clipPath><g><g><line x1="0" y1="0" x2="0" y2="5" style="visibility: inherit;" fill="rgb(0, 0, 0)" stroke="rgb(204, 204, 204)" stroke-width="1px"></line><line x1="23.203125" y1="0" x2="23.203125" y2="5" style="visibility: inherit;" fill="rgb(0, 0, 0)" stroke="rgb(204, 204, 204)" stroke-width="1px"></line><line x1="46.40625" y1="0" x2="46.40625" y2="5" style="visibility: inherit;" fill="rgb(0, 0, 0)" stroke="rgb(204, 204, 204)" stroke-width="1px"></line><line x1="69.609375" y1="0" x2="69.609375" y2="5" style="visibility: inherit;" fill="rgb(0, 0, 0)" stroke="rgb(204, 204, 204)" stroke-width="1px"></line><line x1="92.8125" y1="0" x2="92.8125" y2="5" style="visibility: inherit;" fill="rgb(0, 0, 0)" stroke="rgb(204, 204, 204)" stroke-width="1px"></line><line x1="116.015625" y1="0" x2="116.015625" y2="5" style="visibility: inherit;" fill="rgb(0, 0, 0)" stroke="rgb(204, 204, 204)" stroke-width="1px"></line><line x1="139.21875" y1="0" x2="139.21875" y2="5" style="visibility: inherit;" fill="rgb(0, 0, 0)" stroke="rgb(204, 204, 204)" stroke-width="1px"></line><line x1="162.421875" y1="0" x2="162.421875" y2="5" style="visibility: inherit;" fill="rgb(0, 0, 0)" stroke="rgb(204, 204, 204)" stroke-width="1px"></line><line x1="185.625" y1="0" x2="185.625" y2="5" style="visibility: inherit;" fill="rgb(0, 0, 0)" stroke="rgb(204, 204, 204)" stroke-width="1px"></line><line x1="208.828125" y1="0" x2="208.828125" y2="5" style="visibility: inherit;" fill="rgb(0, 0, 0)" stroke="rgb(204, 204, 204)" stroke-width="1px"></line><line x1="232.03125" y1="0" x2="232.03125" y2="5" style="visibility: inherit;" fill="rgb(0, 0, 0)" stroke="rgb(204, 204, 204)" stroke-width="1px"></line><line x1="255.234375" y1="0" x2="255.234375" y2="5" style="visibility: inherit;" fill="rgb(0, 0, 0)" stroke="rgb(204, 204, 204)" stroke-width="1px"></line><line x1="278.4375" y1="0" x2="278.4375" y2="5" style="visibility: inherit;" fill="rgb(0, 0, 0)" stroke="rgb(204, 204, 204)" stroke-width="1px"></line></g><g transform="translate(0, 8)"><text x="0" y="0" dx="0em" dy="0.95em" style="text-anchor: middle; visibility: hidden; font-family: Roboto, sans-serif; font-size: 12px; font-weight: 200;" fill="rgb(255, 255, 255)" stroke="none" stroke-width="1px">-20</text><text x="23.203125" y="0" dx="0em" dy="0.95em" style="text-anchor: middle; visibility: inherit; font-family: Roboto, sans-serif; font-size: 12px; font-weight: 200;" fill="rgb(255, 255, 255)" stroke="none" stroke-width="1px">0</text><text x="46.40625" y="0" dx="0em" dy="0.95em" style="text-anchor: middle; visibility: hidden; font-family: Roboto, sans-serif; font-size: 12px; font-weight: 200;" fill="rgb(255, 255, 255)" stroke="none" stroke-width="1px">20</text><text x="69.609375" y="0" dx="0em" dy="0.95em" style="text-anchor: middle; visibility: inherit; font-family: Roboto, sans-serif; font-size: 12px; font-weight: 200;" fill="rgb(255, 255, 255)" stroke="none" stroke-width="1px">40</text><text x="92.8125" y="0" dx="0em" dy="0.95em" style="text-anchor: middle; visibility: hidden; font-family: Roboto, sans-serif; font-size: 12px; font-weight: 200;" fill="rgb(255, 255, 255)" stroke="none" stroke-width="1px">60</text><text x="116.015625" y="0" dx="0em" dy="0.95em" style="text-anchor: middle; visibility: inherit; font-family: Roboto, sans-serif; font-size: 12px; font-weight: 200;" fill="rgb(255, 255, 255)" stroke="none" stroke-width="1px">80</text><text x="139.21875" y="0" dx="0em" dy="0.95em" style="text-anchor: middle; visibility: hidden; font-family: Roboto, sans-serif; font-size: 12px; font-weight: 200;" fill="rgb(255, 255, 255)" stroke="none" stroke-width="1px">100</text><text x="162.421875" y="0" dx="0em" dy="0.95em" style="text-anchor: middle; visibility: inherit; font-family: Roboto, sans-serif; font-size: 12px; font-weight: 200;" fill="rgb(255, 255, 255)" stroke="none" stroke-width="1px">120</text><text x="185.625" y="0" dx="0em" dy="0.95em" style="text-anchor: middle; visibility: hidden; font-family: Roboto, sans-serif; font-size: 12px; font-weight: 200;" fill="rgb(255, 255, 255)" stroke="none" stroke-width="1px">140</text><text x="208.828125" y="0" dx="0em" dy="0.95em" style="text-anchor: middle; visibility: inherit; font-family: Roboto, sans-serif; font-size: 12px; font-weight: 200;" fill="rgb(255, 255, 255)" stroke="none" stroke-width="1px">160</text><text x="232.03125" y="0" dx="0em" dy="0.95em" style="text-anchor: middle; visibility: hidden; font-family: Roboto, sans-serif; font-size: 12px; font-weight: 200;" fill="rgb(255, 255, 255)" stroke="none" stroke-width="1px">180</text><text x="255.234375" y="0" dx="0em" dy="0.95em" style="text-anchor: middle; visibility: inherit; font-family: Roboto, sans-serif; font-size: 12px; font-weight: 200;" fill="rgb(255, 255, 255)" stroke="none" stroke-width="1px">200</text><text x="278.4375" y="0" dx="0em" dy="0.95em" style="text-anchor: middle; visibility: hidden; font-family: Roboto, sans-serif; font-size: 12px; font-weight: 200;" fill="rgb(255, 255, 255)" stroke="none" stroke-width="1px">220</text></g><line x1="0" y1="0" x2="278.4375" y2="0" fill="rgb(0, 0, 0)" stroke="rgb(204, 204, 204)" stroke-width="1px"></line></g></g></g></g></svg>